<svg xmlns="http://www.w3.org/2000/svg" viewBox="0 0 400 400">
  <!-- Paper airplane formation - matching the reference image -->
  <!-- White planes with orange accent planes in diagonal formation -->

  <!-- Define a single paper airplane shape -->
  <defs>
    <g id="plane-white">
      <path d="M 0 20 L 30 0 L 12 12 Z" fill="#FFFFFF" stroke="#333" stroke-width="0.8" stroke-linejoin="round"/>
      <path d="M 0 20 L 12 12 L 8 22 Z" fill="#F0F0F0" stroke="#333" stroke-width="0.8" stroke-linejoin="round"/>
    </g>
    <g id="plane-orange">
      <path d="M 0 20 L 30 0 L 12 12 Z" fill="#FF6B35" stroke="#333" stroke-width="0.8" stroke-linejoin="round"/>
      <path d="M 0 20 L 12 12 L 8 22 Z" fill="#E55A25" stroke="#333" stroke-width="0.8" stroke-linejoin="round"/>
    </g>
  </defs>

  <!-- Row 1 (top) - 4 white planes -->
  <use href="#plane-white" transform="translate(200, 40) scale(1.3)"/>
  <use href="#plane-white" transform="translate(230, 60) scale(1.3)"/>
  <use href="#plane-white" transform="translate(260, 80) scale(1.3)"/>
  <use href="#plane-white" transform="translate(290, 100) scale(1.3)"/>

  <!-- Row 2 - 4 white planes -->
  <use href="#plane-white" transform="translate(170, 70) scale(1.3)"/>
  <use href="#plane-white" transform="translate(200, 90) scale(1.3)"/>
  <use href="#plane-white" transform="translate(230, 110) scale(1.3)"/>
  <use href="#plane-white" transform="translate(260, 130) scale(1.3)"/>

  <!-- Row 3 - 2 white, 2 orange -->
  <use href="#plane-white" transform="translate(140, 100) scale(1.3)"/>
  <use href="#plane-white" transform="translate(170, 120) scale(1.3)"/>
  <use href="#plane-orange" transform="translate(200, 140) scale(1.3)"/>
  <use href="#plane-orange" transform="translate(230, 160) scale(1.3)"/>

  <!-- Row 4 - 2 white, 2 orange -->
  <use href="#plane-white" transform="translate(110, 130) scale(1.3)"/>
  <use href="#plane-white" transform="translate(140, 150) scale(1.3)"/>
  <use href="#plane-orange" transform="translate(170, 170) scale(1.3)"/>
  <use href="#plane-orange" transform="translate(200, 190) scale(1.3)"/>

  <!-- Row 5 - 2 white, 1 orange -->
  <use href="#plane-white" transform="translate(80, 160) scale(1.3)"/>
  <use href="#plane-white" transform="translate(110, 180) scale(1.3)"/>
  <use href="#plane-orange" transform="translate(140, 200) scale(1.3)"/>

  <!-- Row 6 - 1 white, 1 orange -->
  <use href="#plane-white" transform="translate(80, 210) scale(1.3)"/>
  <use href="#plane-orange" transform="translate(110, 230) scale(1.3)"/>

  <!-- Row 7 (bottom) - 1 white -->
  <use href="#plane-white" transform="translate(80, 260) scale(1.3)"/>
</svg>
